
<svg width="200px" height="200px" viewBox="0 0 1181 709" version="1.1" xmlns="http://www.w3.org/2000/svg">
<g id="#fab20aff">
<path fill="#fab20a" opacity="1.00" d=" M 398.51 69.17 C 527.70 32.04 667.29 32.05 796.48 69.15 C 796.50 145.44 796.48 221.74 796.49 298.03 C 797.25 334.92 783.37 370.71 763.10 401.04 C 743.30 430.31 717.88 455.38 690.66 477.75 C 661.80 501.07 630.32 521.05 597.39 538.11 C 562.76 519.84 529.47 498.77 499.42 473.59 C 470.30 449.01 443.15 421.23 423.92 388.07 C 408.43 361.44 398.34 331.07 398.50 300.05 C 398.51 223.09 398.49 146.13 398.51 69.17 M 412.52 76.58 C 413.01 149.05 412.68 221.53 412.81 294.01 C 413.96 317.96 421.67 341.24 433.10 362.20 C 448.63 390.87 470.78 415.37 495.10 436.84 C 526.06 464.18 560.91 486.96 597.71 505.63 C 650.18 478.36 699.79 443.65 737.82 397.93 C 761.67 368.68 780.00 333.24 782.22 295.01 C 782.42 222.16 782.04 149.29 782.41 76.43 C 662.27 42.34 532.60 42.10 412.52 76.58 Z" />
<path fill="#fab20a" opacity="1.00" d=" M 426.94 83.20 C 539.34 52.41 660.08 52.97 772.31 84.25 C 773.06 118.81 772.83 153.41 772.86 187.99 C 772.87 219.98 772.85 251.97 772.87 283.95 C 772.96 303.37 768.89 322.71 761.47 340.63 C 751.11 365.66 735.16 388.32 715.76 407.17 C 727.90 392.40 739.29 376.86 747.82 359.69 C 757.79 340.31 764.26 318.91 765.01 297.05 C 765.26 229.34 764.77 161.61 765.28 93.91 C 656.52 61.84 538.51 61.66 429.79 93.99 C 429.85 102.32 429.60 110.65 430.05 118.97 C 430.09 177.99 430.06 237.01 430.07 296.04 C 430.55 318.28 437.15 340.08 447.30 359.77 C 455.89 376.95 467.28 392.54 479.48 407.30 C 469.15 397.62 460.25 386.46 452.16 374.87 C 434.17 348.56 421.85 317.27 422.48 285.04 C 421.87 266.04 422.33 247.01 422.19 228.00 C 422.21 181.01 422.13 134.01 422.22 87.02 C 422.14 84.46 424.97 83.70 426.94 83.20 Z" />
<path fill="#fab20a" opacity="1.00" d=" M 301.12 561.12 C 309.58 561.11 318.04 561.12 326.50 561.12 C 326.51 571.20 326.49 581.28 326.51 591.36 C 333.71 589.67 340.91 587.96 348.12 586.27 C 348.12 577.89 348.11 569.50 348.12 561.12 C 356.71 561.11 365.29 561.11 373.88 561.12 C 373.88 587.08 373.88 613.04 373.88 639.00 C 365.29 639.00 356.70 639.00 348.11 639.00 C 348.09 628.64 348.17 618.28 348.07 607.92 C 340.79 609.16 333.70 611.32 326.51 612.97 C 326.50 621.64 326.50 630.32 326.51 639.00 C 318.04 639.00 309.58 639.00 301.12 639.00 C 301.12 613.04 301.11 587.08 301.12 561.12 Z" />
<path fill="#fab20a" opacity="1.00" d=" M 395.30 571.42 C 403.84 570.99 412.42 571.37 420.97 571.24 C 425.69 571.38 430.73 570.51 435.07 572.85 C 439.75 575.19 444.48 579.41 444.47 585.06 C 444.56 589.03 444.52 593.02 444.49 597.00 C 444.63 603.49 438.61 608.12 433.00 610.02 C 424.78 612.12 416.49 613.94 408.24 615.92 C 408.24 609.67 408.25 603.42 408.24 597.17 C 412.87 595.96 417.51 594.77 422.17 593.67 C 422.17 592.40 422.17 591.13 422.17 589.88 C 416.03 589.88 409.89 589.88 403.76 589.88 C 403.75 600.17 403.75 610.46 403.76 620.75 C 417.34 620.74 430.92 620.75 444.50 620.75 C 444.50 626.83 444.50 632.91 444.50 639.00 C 429.33 639.00 414.16 638.99 398.99 639.01 C 394.25 639.06 389.74 636.84 386.18 633.83 C 383.60 631.61 381.35 628.52 381.62 624.95 C 381.67 611.28 381.53 597.62 381.69 583.96 C 382.75 577.39 389.28 573.06 395.30 571.42 Z" />
<path fill="#fab20a" opacity="1.00" d=" M 453.12 571.25 C 460.50 571.24 467.87 571.24 475.25 571.24 C 475.26 587.74 475.25 604.24 475.25 620.75 C 488.83 620.75 502.42 620.74 516.00 620.75 C 516.00 626.83 516.00 632.91 516.00 639.00 C 500.34 639.00 484.68 639.00 469.02 639.01 C 460.73 639.01 452.53 631.62 453.10 623.04 C 453.13 605.77 453.11 588.51 453.12 571.25 Z" />
<path fill="#fab20a" opacity="1.00" d=" M 524.12 571.25 C 537.75 571.24 551.38 571.25 565.01 571.24 C 569.14 571.29 573.53 570.73 577.35 572.73 C 582.46 575.10 587.42 579.92 587.00 586.00 C 586.90 592.70 587.23 599.42 586.82 606.11 C 585.51 612.35 578.89 616.10 572.91 616.57 C 565.53 616.72 558.13 616.58 550.74 616.62 C 550.75 611.04 550.74 605.45 550.75 599.88 C 555.41 599.87 560.08 599.87 564.75 599.87 C 564.74 596.54 564.74 593.21 564.75 589.88 C 558.58 589.88 552.41 589.88 546.25 589.89 C 546.25 606.26 546.25 622.63 546.25 639.00 C 538.87 639.00 531.49 639.00 524.12 639.00 C 524.12 616.41 524.11 593.83 524.12 571.25 Z" />
</g>
<g id="#1a1a28ff">
<path fill="#1a1a28" opacity="1.00" d=" M 637.61 197.41 C 644.38 196.53 651.29 197.00 658.03 198.02 C 669.53 199.96 679.31 206.77 690.01 210.94 C 694.77 212.85 701.04 211.06 704.79 215.25 C 706.64 219.12 707.88 223.28 709.98 227.06 C 712.82 232.30 712.46 239.78 707.69 243.77 C 703.06 247.28 697.08 248.00 691.77 250.06 C 689.53 251.60 688.63 248.28 687.67 246.89 C 686.65 244.59 689.40 243.72 690.93 242.87 C 695.04 240.72 699.75 240.00 703.84 237.86 C 705.43 231.34 700.22 226.01 698.71 220.01 C 693.88 219.19 688.77 219.13 684.41 216.63 C 671.51 210.18 657.90 203.00 642.99 204.21 C 631.64 204.10 624.21 213.79 615.62 219.66 C 613.20 221.76 609.88 221.17 606.94 221.27 C 592.80 221.29 578.04 222.59 565.52 229.74 C 565.06 233.94 565.07 238.17 565.22 242.38 C 567.31 242.98 569.63 243.24 571.43 244.59 C 572.93 245.63 572.48 247.63 572.74 249.17 C 568.61 251.77 562.91 250.97 559.83 247.15 C 557.02 244.11 558.03 239.68 557.71 235.94 C 557.53 231.43 557.73 225.70 562.24 223.26 C 576.94 214.86 594.42 213.51 611.01 214.25 C 619.13 207.68 626.93 199.48 637.61 197.41 Z" />
<path fill="#1a1a28" opacity="1.00" d=" M 511.02 198.90 C 518.47 196.62 526.33 198.04 533.98 197.74 C 541.05 197.25 548.06 202.86 548.82 209.96 C 549.36 226.65 548.94 243.35 548.94 260.05 C 600.30 260.43 651.67 259.99 703.04 260.08 C 708.25 260.00 714.08 261.07 717.39 265.50 C 722.16 271.23 720.60 279.16 720.69 286.02 C 720.91 292.72 715.56 299.07 708.97 300.09 C 704.69 300.41 700.40 300.44 696.12 300.42 C 693.21 300.52 690.78 298.86 688.71 297.02 C 690.21 295.41 691.70 293.48 694.02 293.10 C 699.27 291.98 704.91 294.20 709.97 292.01 C 713.72 289.78 713.58 284.81 713.44 280.99 C 713.03 277.24 714.25 272.70 711.28 269.73 C 709.50 267.58 706.55 267.49 704.00 267.53 C 675.67 267.73 647.35 267.11 619.03 267.56 C 594.99 267.53 570.94 267.59 546.90 267.54 C 545.13 267.45 542.09 267.42 542.06 264.99 C 541.46 247.63 542.10 230.25 541.77 212.88 C 541.89 209.13 539.05 205.15 535.06 205.19 C 528.38 204.82 521.66 204.86 514.99 205.33 C 511.68 205.64 509.53 208.43 507.67 210.87 C 512.77 211.10 517.87 211.44 522.98 211.69 C 527.28 211.94 532.05 214.38 533.01 218.93 C 534.36 225.88 533.55 233.01 533.54 240.03 C 533.54 245.42 528.49 250.19 523.12 249.91 C 515.42 249.88 507.70 250.48 500.03 249.69 C 496.64 249.30 496.69 243.39 500.05 242.93 C 508.44 241.97 516.93 243.23 525.33 242.21 C 527.18 235.96 526.62 229.40 526.27 222.99 C 526.57 220.18 523.39 218.86 521.05 218.85 C 515.54 218.71 510.02 219.31 504.52 218.80 C 502.09 224.63 499.75 230.50 497.34 236.34 C 495.95 239.75 494.25 243.11 493.84 246.83 C 493.31 251.14 493.68 255.49 493.69 259.82 C 497.86 259.87 502.32 258.99 506.24 260.81 C 511.38 263.28 513.14 270.90 509.18 275.16 C 505.41 279.85 499.10 280.93 493.43 281.15 C 493.86 284.65 493.08 289.24 496.36 291.57 C 499.43 292.93 502.82 293.29 506.07 294.07 C 506.11 296.03 506.84 298.62 504.78 299.85 C 496.59 302.55 486.33 295.90 486.51 286.99 C 486.48 273.66 486.49 260.34 486.50 247.01 C 487.03 239.67 490.83 233.14 493.51 226.42 C 495.95 220.79 497.93 214.97 500.40 209.36 C 502.48 204.75 505.96 200.33 511.02 198.90 M 494.03 267.11 C 493.93 269.33 493.83 271.54 493.76 273.75 C 497.86 273.59 502.12 272.56 504.80 269.21 C 502.03 266.08 497.71 267.01 494.03 267.11 Z" />
<path fill="#1a1a28" opacity="1.00" d=" M 583.33 228.50 C 591.53 225.32 601.48 230.61 603.68 239.05 C 606.23 247.17 600.83 256.51 592.61 258.53 C 584.35 261.02 574.89 255.28 573.22 246.84 C 571.27 239.29 575.97 230.93 583.33 228.50 M 586.25 235.22 C 582.52 236.29 579.88 240.15 580.24 244.00 C 580.45 248.41 584.56 252.14 588.98 251.91 C 593.58 251.92 597.60 247.63 597.29 243.04 C 597.26 237.66 591.34 233.42 586.25 235.22 Z" />
<path fill="#1a1a28" opacity="1.00" d=" M 655.32 246.66 C 653.55 238.27 659.43 229.25 667.94 227.89 C 677.42 225.75 687.31 234.29 686.50 244.00 C 686.50 253.97 675.44 261.71 666.07 258.33 C 660.65 256.86 657.33 252.05 655.09 247.23 C 655.41 249.61 653.60 252.17 651.09 251.92 C 637.73 252.12 624.36 251.82 610.99 252.04 C 608.78 251.99 605.84 252.31 604.69 249.91 C 603.11 247.08 605.82 243.62 608.93 244.19 C 623.62 244.39 638.35 243.76 653.02 244.52 C 653.74 245.27 654.51 245.98 655.32 246.66 M 668.30 235.30 C 662.58 236.98 660.53 245.04 664.81 249.22 C 668.85 253.94 677.46 252.07 679.14 246.07 C 681.62 239.75 674.58 232.77 668.30 235.30 Z" />
<path fill="#1a1a28" opacity="1.00" d=" M 526.33 274.51 C 539.54 269.86 554.79 280.27 556.14 294.00 C 558.08 307.60 545.62 320.84 531.95 319.77 C 519.43 319.48 508.77 307.35 510.01 294.91 C 510.55 285.58 517.55 277.35 526.33 274.51 M 528.37 281.63 C 521.56 283.83 516.41 290.80 517.33 298.08 C 517.79 307.47 528.13 314.23 537.01 312.05 C 544.76 310.21 550.17 301.97 548.58 294.11 C 547.49 284.95 537.08 278.30 528.37 281.63 Z" />
<path fill="#1a1a28" opacity="1.00" d=" M 656.39 274.66 C 667.24 270.56 680.09 276.92 684.60 287.32 C 688.50 295.75 686.32 306.30 679.86 312.86 C 674.87 318.24 667.11 320.63 659.92 319.59 C 652.00 318.29 644.93 312.69 641.89 305.25 C 640.29 301.22 640.13 296.75 640.63 292.49 C 641.94 284.17 648.56 277.33 656.39 274.66 M 660.24 281.15 C 652.17 282.96 645.71 291.62 647.95 299.93 C 649.21 307.41 656.65 312.60 664.04 312.36 C 673.27 312.51 680.99 302.93 678.84 293.92 C 677.67 285.40 668.60 279.16 660.24 281.15 Z" />
<path fill="#1a1a28" opacity="1.00" d=" M 561.21 292.09 C 562.69 291.39 564.38 291.56 565.98 291.47 C 587.99 291.56 610.00 291.43 632.01 291.54 C 635.81 291.21 639.01 295.33 637.74 298.93 C 636.96 301.80 633.89 303.30 631.07 303.00 C 608.33 302.91 585.59 303.18 562.87 302.87 C 557.46 302.45 556.26 294.18 561.21 292.09 Z" />
<path fill="#1a1a28" opacity="1.00" d=" M 595.12 561.00 C 600.45 561.05 605.78 560.89 611.12 561.04 C 614.71 561.08 617.67 563.46 620.19 565.78 C 629.30 574.34 633.13 586.63 639.56 597.06 C 640.71 596.76 641.01 595.47 641.61 594.60 C 645.44 587.41 649.12 580.12 653.16 573.04 C 656.57 568.36 660.73 563.82 666.09 561.42 C 672.11 560.46 678.29 561.25 684.37 561.00 C 684.38 587.00 684.38 613.00 684.37 639.00 C 675.87 639.00 667.37 639.00 658.88 639.00 C 658.86 628.56 658.90 618.12 658.86 607.68 C 652.97 618.13 647.19 628.63 641.25 639.04 C 640.42 639.04 638.74 639.05 637.90 639.05 C 632.05 628.58 626.45 617.97 620.64 607.47 C 620.61 617.97 620.62 628.48 620.63 638.99 C 612.13 639.01 603.62 639.00 595.12 638.99 C 595.12 613.00 595.12 587.00 595.12 561.00 Z" />
<path fill="#1a1a28" opacity="1.00" d=" M 706.26 571.37 C 717.48 571.06 728.72 571.37 739.96 571.22 C 744.99 570.84 749.69 573.43 753.29 576.74 C 755.54 578.90 757.48 581.74 757.36 584.99 C 757.40 598.34 757.37 611.69 757.38 625.04 C 757.60 628.86 755.04 632.05 752.24 634.32 C 748.77 637.05 744.50 639.05 740.02 639.01 C 730.01 639.01 720.01 638.98 710.01 639.02 C 704.74 639.17 699.67 636.68 695.91 633.11 C 693.70 631.02 691.92 628.21 692.12 625.06 C 692.09 612.39 692.16 599.72 692.09 587.05 C 691.18 578.92 699.10 572.92 706.26 571.37 M 714.25 589.88 C 714.25 600.17 714.25 610.46 714.25 620.75 C 721.24 620.75 728.24 620.74 735.24 620.75 C 735.27 610.46 735.25 600.17 735.25 589.88 C 728.25 589.87 721.25 589.87 714.25 589.88 Z" />
<path fill="#1a1a28" opacity="1.00" d=" M 765.66 571.23 C 780.09 571.27 794.52 571.25 808.95 571.24 C 813.02 571.30 817.39 570.68 821.10 572.81 C 826.08 575.30 831.34 579.84 830.89 585.96 C 830.85 598.98 830.89 611.99 830.87 625.01 C 831.12 628.90 828.45 632.15 825.59 634.44 C 822.00 637.24 817.56 639.19 812.94 639.02 C 797.17 638.98 781.40 639.01 765.63 639.00 C 765.64 616.41 765.58 593.82 765.66 571.23 M 787.75 589.88 C 787.75 600.17 787.74 610.46 787.76 620.75 C 794.75 620.74 801.75 620.75 808.75 620.75 C 808.75 610.46 808.75 600.17 808.75 589.88 C 801.75 589.87 794.75 589.87 787.75 589.88 Z" />
<path fill="#1a1a28" opacity="1.00" d=" M 843.99 576.03 C 847.34 573.25 851.51 570.97 856.00 571.23 C 866.37 571.32 876.73 571.14 887.10 571.31 C 894.75 572.18 902.90 578.66 902.01 587.04 C 901.85 591.56 902.47 596.18 901.47 600.63 C 899.25 605.89 893.93 609.33 888.50 610.57 C 880.91 612.34 873.33 614.14 865.75 615.91 C 865.75 609.66 865.74 603.41 865.76 597.16 C 870.36 595.98 874.95 594.76 879.60 593.74 C 879.62 592.44 879.65 591.15 879.69 589.87 C 873.54 589.88 867.39 589.86 861.25 589.89 C 861.25 600.17 861.25 610.46 861.25 620.75 C 874.83 620.75 888.41 620.74 902.00 620.75 C 902.00 626.83 902.00 632.91 902.00 639.00 C 886.99 639.00 871.99 638.99 856.99 639.02 C 850.57 639.11 844.30 635.59 840.64 630.40 C 839.04 628.28 839.08 625.54 839.09 623.03 C 839.17 610.32 839.07 597.62 839.14 584.91 C 839.02 581.32 841.41 578.28 843.99 576.03 Z" />
</g>
</svg>
