<svg xmlns="http://www.w3.org/2000/svg" version="1.1" xmlns:xlink="http://www.w3.org/1999/xlink" xmlns:svgjs="http://svgjs.dev/svgjs" viewBox="0 0 1920 1080" class="overflow-hidden rounded-md drop-shadow-lg transition duration-300" style="overflow: hidden; height: 85vh; width:100vw;"><rect width="1920" height="1080" fill="#ffb101"/><g clip-path="url(&quot;#SvgjsClipPath2108&quot;)"><g transform="matrix(0.798857126027846,-0.8272407703894494,0.8272407703894494,0.798857126027846,-259.9070612066964,876.8821030769326)"><path d="M0,-1080C20.24243832404834,-1011.4265261415918,123.97704793503867,-833.1005919270142,121.45462994429005,-668.5591568495508C118.93221195354143,-504.0177217720875,7.264514973442058,-270.8648173514962,-15.134507944491745,-92.7513895352202C-37.53353086242555,85.36203828105582,-5.28210734980913,263.68120578377443,-12.939507563312759,400.1214100481052C-20.596907776816387,536.561614312436,-55.61526582148121,596.0643635207737,-61.07890922551352,725.8898360507641C-66.54255262954584,855.7153085807545,-56.14961456780687,1016.2627570780392,-45.72136798750664,1179.0742452280474C-35.29312140720641,1341.8857333780556,-6.129657741629892,1539.2711391554878,1.4905702562878815,1702.7587649508132C9.110798254205655,1866.2463907461386,0.24842837604798026,2083.7931274918024,0,2160L 1920 2160 L 1920 -1080 Z" fill="url(&quot;#SvgjsLinearGradient2098&quot;)"/><path d="M192,-1080C211.84959976351112,-1005.8557103278598,307.21697406369776,-806.8149291179209,311.0975985810668,-635.134261967159C314.9782230984358,-463.45359481639707,238.84229262801085,-235.57951905020445,215.28374710421403,-49.91599709542882C191.7252015804172,135.7475248593468,162.63413004301748,273.2919365399365,169.74632543828585,478.84686976149476C176.85852083355422,684.401802983053,251.8579211706073,988.6407482641438,257.9569194758242,1183.413602233921C264.05591778104105,1378.186456203698,217.33313518222448,1484.7195939524781,206.3403152695871,1647.4839935801579C195.34749535694974,1810.2483932078376,194.3900525449312,2074.580665596693,192,2160L 1920 2160 L 1920 -1080 Z" fill="url(&quot;#SvgjsLinearGradient2099&quot;)"/><path d="M384,-1080C364.34050074717237,-960.5114052120103,250.34091486844957,-569.3089352732363,266.0430044830341,-363.0684312720619C281.7450940976186,-156.82792727088753,476.1713035336389,-57.985505920416074,478.21253768750717,157.4430240070462C480.25377184137545,372.8715539345085,290.2279681240716,712.0755769598129,278.29040940624395,929.5027482927119C266.3528506884163,1146.9299196256109,388.9689202815821,1256.9231767198924,406.5871853805414,1462.0060520044403C424.20545047950077,1667.0889272889883,387.7645308967569,2043.6676753340735,384,2160L 1920 2160 L 1920 -1080 Z" fill="url(&quot;#SvgjsLinearGradient2100&quot;)"/><path d="M576,-1080C582.3466890485814,-956.6228954920474,629.198132427319,-561.489130813034,614.0801342914884,-339.73737295228455C598.9621361556578,-117.98561509153512,512.2441621869871,60.23930996698314,485.2920111850166,250.51054716449647C458.3398601830461,440.78178436200983,435.48655279733293,605.2878674178671,452.36722827966554,801.8900502327955C469.24790376199815,998.4922330477239,565.970602125623,1203.7719857595328,586.5760640790121,1430.1236440540667C607.1815260324012,1656.4753023486007,577.762677346502,2038.3539406756777,576,2160L 1920 2160 L 1920 -1080 Z" fill="url(&quot;#SvgjsLinearGradient2101&quot;)"/><path d="M768,-1080C762.1715579008641,-1011.3915549748781,727.3147754042384,-803.2424679418854,733.0293474051846,-668.3493298492688C738.7439194061308,-533.4561917566522,778.2518420786735,-398.5354955441306,802.2874320056771,-270.64117144430065C826.3230219326808,-142.74684734447072,888.1713886613085,-34.50467808687132,877.2428869672066,99.01661474971066C866.3143852731047,232.53790758629265,736.8301952023882,405.8368946023047,736.716421841066,530.4865855751912C736.6026484797438,655.1362765480776,890.0830675062467,726.3276238858525,876.5602467992737,846.9147605870294C863.0374260923007,967.5018972882062,692.285659893183,1098.9202506789143,655.5794975992283,1254.009405782252C618.8733353052735,1409.09856088559,637.5865226354168,1626.4512588374312,656.3232730355454,1777.4496912070558C675.060023435674,1928.4481235766805,749.3872121725909,2096.241615201176,768,2160L 1920 2160 L 1920 -1080 Z" fill="url(&quot;#SvgjsLinearGradient2102&quot;)"/><path d="M960,-1080C970.787670965286,-992.665042432154,1007.0421325095053,-692.4758442591994,1024.7260257917158,-555.9902545929237C1042.4099190739262,-419.504664926648,1062.8726248783246,-385.9138306818533,1066.1033596932625,-261.08646200234546C1069.3340945082005,-136.2590933228376,1075.3297329088489,5.136525965204811,1044.110434681344,192.97395748412356C1012.8911364538391,380.81138900304234,877.5255813469859,673.8160360681221,878.787570328233,865.9381271111671C880.0495593094801,1058.0602181542122,1050.399048019087,1220.3822196282224,1051.6823685688269,1345.7065037423934C1052.9656891185666,1471.0307878565643,901.7678883881421,1482.168249086591,886.4874936266709,1617.8838317961922C871.2070988651998,1753.5994145057934,947.7479156044451,2069.647305299365,960,2160L 1920 2160 L 1920 -1080 Z" fill="url(&quot;#SvgjsLinearGradient2103&quot;)"/><path d="M1152,-1080C1169.9474331700449,-996.738067583941,1277.9938830277313,-737.3935418903978,1259.6845990202692,-580.4284055036458C1241.375315012807,-423.4632691168937,1042.4722857179304,-288.37874533923343,1042.1442959552269,-138.20918167948776C1041.8163061925234,11.960381980257893,1222.2772940077882,182.35317019271162,1257.7166604440476,320.5889764548282C1293.156026880307,458.82478271694475,1251.9070271189403,545.4610294352693,1254.780494572783,691.2056558932117C1257.6539620266258,836.950282351154,1282.326201485454,1010.6517357516806,1274.9574651671035,1195.0567352024823C1267.588728848753,1379.461734653284,1231.060987523864,1636.8117751317693,1210.5680766626801,1797.6356525980223C1190.0751658014963,1958.4595300642752,1161.7613461104468,2099.6059420996703,1152,2160L 1920 2160 L 1920 -1080 Z" fill="url(&quot;#SvgjsLinearGradient2104&quot;)"/><path d="M1344,-1080C1332.8684487596431,-974.821184557665,1292.375475005109,-645.2557602129053,1277.2106925578585,-448.9271073459897C1262.045910110608,-252.5984544790741,1242.4227033188322,-112.25110452042557,1253.0113053164966,97.97191720149374C1263.599907314161,308.194938923413,1318.3938846850301,559.3595689866163,1340.742304543845,812.4110229855262C1363.0907244026598,1065.462476984436,1386.558875226693,1391.6824783592076,1387.1018244693855,1616.2806411949532C1387.644773712078,1840.8788040306988,1351.1836374115642,2069.3801068658254,1344,2160L 1920 2160 L 1920 -1080 Z" fill="url(&quot;#SvgjsLinearGradient2105&quot;)"/><path d="M1536,-1080C1524.1968957919012,-993.805553376509,1450.0867179692452,-746.5685772711921,1465.181374751407,-562.8333202590543C1480.2760315335688,-379.09806324691647,1600.6199787437372,-176.19552271530776,1626.5679406929705,22.41154207282719C1652.5159026422039,221.01860686096214,1632.9750521006993,457.2882077739455,1620.8691464468075,628.8090684697553C1608.7632407929157,800.3299291655651,1561.382769519118,874.0870318863118,1553.93250676962,1051.536706247686C1546.482244020122,1228.98638060906,1579.1563210780894,1508.7632323459477,1576.1675699498194,1693.507114638C1573.1788188215494,1878.2509969300525,1542.6945949916367,2082.251185773,1536,2160L 1920 2160 L 1920 -1080 Z" fill="url(&quot;#SvgjsLinearGradient2106&quot;)"/><path d="M1728,-1080C1729.495047716115,-985.0052699892299,1729.3882451214413,-687.5779452775374,1736.9702862966901,-510.0316199353789C1744.552327471939,-332.4852945932204,1791.0385346436635,-189.98796281600985,1773.4922470514925,-14.72204794704885C1755.9459594593216,160.54386692191216,1648.7326572238862,357.17114603871323,1631.692560743664,541.5638692783871C1614.6524642634417,725.9565925180609,1658.0924203412776,896.6564377908353,1671.2516681701588,1091.634291490994C1684.41091599904,1286.6121451911526,1701.189992411978,1533.3700400611713,1710.6480477169516,1711.430991479339C1720.1061030219253,1889.4919428975065,1725.1080079528253,2085.23849857989,1728,2160L 1920 2160 L 1920 -1080 Z" fill="url(&quot;#SvgjsLinearGradient2107&quot;)"/></g></g><defs><linearGradient x1="0.1" y1="0" x2="0" y2="1" id="SvgjsLinearGradient2098"><stop stop-color="#ffb101" offset="0"/><stop stop-color="#ff8701" offset="0"/></linearGradient><linearGradient x1="0.1" y1="0" x2="0" y2="1" id="SvgjsLinearGradient2099"><stop stop-color="#ffb610" offset="0"/><stop stop-color="#ff8e10" offset="0.1"/></linearGradient><linearGradient x1="0.1" y1="0" x2="0" y2="1" id="SvgjsLinearGradient2100"><stop stop-color="#ffba1f" offset="0"/><stop stop-color="#ff951f" offset="0.2"/></linearGradient><linearGradient x1="0.1" y1="0" x2="0" y2="1" id="SvgjsLinearGradient2101"><stop stop-color="#ffbf2e" offset="0"/><stop stop-color="#ff9c2e" offset="0.3"/></linearGradient><linearGradient x1="0.1" y1="0" x2="0" y2="1" id="SvgjsLinearGradient2102"><stop stop-color="#ffc33d" offset="0"/><stop stop-color="#ffa33d" offset="0.4"/></linearGradient><linearGradient x1="0.1" y1="0" x2="0" y2="1" id="SvgjsLinearGradient2103"><stop stop-color="#ffc84c" offset="0"/><stop stop-color="#ffaa4c" offset="0.5"/></linearGradient><linearGradient x1="0.1" y1="0" x2="0" y2="1" id="SvgjsLinearGradient2104"><stop stop-color="#ffcd5b" offset="0"/><stop stop-color="#ffb25b" offset="0.6"/></linearGradient><linearGradient x1="0.1" y1="0" x2="0" y2="1" id="SvgjsLinearGradient2105"><stop stop-color="#ffd16a" offset="0"/><stop stop-color="#ffb86a" offset="0.7"/></linearGradient><linearGradient x1="0.1" y1="0" x2="0" y2="1" id="SvgjsLinearGradient2106"><stop stop-color="#ffd679" offset="0"/><stop stop-color="#ffc079" offset="0.8"/></linearGradient><linearGradient x1="0.1" y1="0" x2="0" y2="1" id="SvgjsLinearGradient2107"><stop stop-color="#ffda88" offset="0"/><stop stop-color="#ffc688" offset="0.9"/></linearGradient><clipPath id="SvgjsClipPath2108"><rect width="1920" height="1080"/></clipPath></defs></svg>