<?xml version="1.0" standalone="no"?>
<!DOCTYPE svg PUBLIC "-//W3C//DTD SVG 20010904//EN"
 "http://www.w3.org/TR/2001/REC-SVG-20010904/DTD/svg10.dtd">
<svg version="1.0" xmlns="http://www.w3.org/2000/svg"
 width="700.000000pt" height="700.000000pt" viewBox="0 0 700.000000 700.000000"
 preserveAspectRatio="xMidYMid meet">
<metadata>
Created by potrace 1.14, written by Peter Selinger 2001-2017
</metadata>
<g transform="translate(0.000000,700.000000) scale(0.100000,-0.100000)"
fill="#000000" stroke="none">
<path d="M3387 5354 c-1 -1 -54 -4 -117 -8 -63 -3 -131 -8 -150 -10 -19 -3
-62 -8 -95 -11 -86 -10 -96 -11 -130 -18 -16 -3 -48 -9 -70 -12 -22 -3 -53 -8
-70 -11 -43 -7 -237 -51 -320 -72 l-70 -18 0 -750 0 -749 23 -88 c45 -171 107
-296 226 -454 181 -243 460 -476 819 -682 l107 -62 93 52 c212 119 372 231
539 376 312 271 498 567 543 868 9 61 7 1477 -2 1485 -8 7 -147 45 -193 53
-14 3 -43 10 -65 15 -22 6 -53 13 -70 16 -16 2 -68 11 -115 20 -109 19 -141
24 -215 31 -33 3 -69 8 -81 10 -74 12 -575 29 -587 19z m488 -67 c17 -3 62 -8
100 -11 39 -4 81 -9 95 -11 14 -2 45 -7 70 -10 83 -11 254 -45 372 -75 65 -17
119 -30 121 -30 2 0 3 -307 2 -682 -2 -741 -1 -728 -60 -884 -120 -318 -444
-644 -905 -908 -63 -36 -120 -66 -127 -66 -7 0 -33 11 -58 25 -25 14 -66 37
-92 51 -94 51 -275 176 -380 263 -332 272 -519 553 -560 843 -8 60 -9 1349 -1
1355 9 5 6 4 184 47 78 19 162 37 188 40 26 4 69 11 96 16 27 5 71 12 97 15
26 3 57 8 68 10 11 2 70 7 130 10 61 4 112 9 114 11 5 5 507 -4 546 -9z"/>
<path d="M3437 5243 c-1 0 -56 -4 -123 -7 -66 -4 -131 -9 -145 -11 -13 -2 -49
-6 -79 -10 -155 -16 -406 -63 -537 -101 l-53 -15 3 -657 c3 -639 4 -659 25
-736 42 -151 146 -338 254 -456 l41 -45 -33 45 c-122 170 -180 287 -227 459
-4 14 -9 321 -10 682 l-4 655 128 32 c191 48 362 77 578 98 190 18 629 6 760
-21 11 -2 42 -7 68 -10 54 -6 198 -35 297 -60 36 -9 73 -18 83 -20 38 -9 62
-18 67 -26 8 -11 4 -1260 -3 -1284 -3 -11 -9 -35 -12 -54 -20 -120 -104 -291
-212 -435 -24 -32 -40 -55 -34 -52 13 8 131 152 131 160 0 3 14 25 31 50 41
61 93 176 121 267 22 73 22 80 25 744 l3 670 -122 29 c-68 15 -132 30 -143 32
-11 1 -69 12 -130 22 -60 11 -141 23 -180 27 -38 4 -78 9 -88 11 -44 8 -474
24 -480 17z"/>
<path d="M3768 4425 c-25 -6 -68 -30 -97 -52 -47 -38 -55 -41 -118 -42 -38 -1
-86 -6 -108 -12 -22 -6 -49 -13 -61 -16 -11 -2 -33 -15 -49 -27 -30 -24 -40
-79 -24 -124 10 -26 47 -43 68 -32 10 5 21 0 34 -16 10 -13 33 -28 50 -33 24
-7 3 -9 -88 -10 l-120 -1 -1 162 -1 161 -29 24 c-26 22 -37 24 -116 21 -110
-4 -119 -13 -180 -158 l-43 -105 0 -148 0 -149 29 -24 c32 -28 79 -29 84 -3 2
11 -8 19 -30 25 -27 8 -34 15 -36 42 -3 28 0 32 21 32 34 0 77 36 77 65 0 33
-26 55 -66 55 -36 0 -38 3 -35 60 1 33 45 154 62 174 10 12 89 14 112 4 13 -7
17 -21 17 -61 0 -29 -4 -57 -8 -63 -4 -6 -36 -11 -75 -10 -77 1 -93 -4 -84
-28 5 -13 23 -16 91 -16 106 0 122 14 120 106 -2 106 -19 124 -112 124 -43 0
-45 1 -29 17 23 23 163 25 177 3 5 -8 10 -90 10 -182 0 -127 3 -168 13 -169 6
-1 229 -2 495 -3 466 -1 484 -2 498 -20 8 -11 14 -37 14 -58 0 -47 -27 -78
-66 -73 -15 1 -41 -2 -57 -8 -28 -9 -29 -11 -12 -24 22 -16 95 -17 128 -2 35
16 49 46 48 109 0 103 -24 120 -179 121 -85 1 -102 3 -81 12 32 12 59 55 59
92 0 60 -85 105 -141 75 -21 -12 -53 -66 -45 -79 3 -4 -59 -7 -137 -6 -78 1
-148 -3 -154 -8 -10 -7 -13 -3 -13 16 0 14 -12 39 -26 56 -30 36 -78 42 -119
15 -23 -15 -49 -69 -40 -84 3 -5 -6 -3 -20 3 -22 10 -25 18 -23 52 3 39 4 40
58 58 30 10 96 22 146 25 86 7 94 9 137 45 55 45 85 57 140 57 51 0 112 -18
197 -59 36 -17 75 -31 87 -31 17 0 27 -10 38 -37 23 -56 17 -74 -32 -91 -31
-10 -43 -19 -43 -33 0 -22 9 -23 62 -7 41 12 78 49 78 78 0 30 -41 118 -59
125 -9 4 -28 9 -43 12 -15 2 -60 19 -100 38 -103 47 -177 59 -250 40z m-246
-232 c23 -21 23 -45 -2 -68 -26 -24 -68 -13 -76 21 -4 17 -1 31 11 44 22 24
43 25 67 3z m488 -3 c24 -24 25 -38 3 -62 -33 -37 -83 -17 -83 34 0 45 46 62
80 28z m-272 -81 c85 1 138 5 141 12 2 6 10 1 18 -11 9 -12 30 -28 47 -36 27
-12 2 -13 -209 -13 -212 0 -236 1 -208 14 17 7 34 23 38 35 5 17 9 19 21 9 10
-8 58 -11 152 -10z m-755 -96 c8 -7 -23 -32 -40 -33 -7 0 -13 9 -13 20 0 14 7
20 23 20 13 0 27 -3 30 -7z"/>
<path d="M3093 3960 c-67 -40 -87 -115 -50 -182 52 -95 182 -94 235 1 49 89
-17 201 -118 201 -19 0 -49 -9 -67 -20z m116 -39 c50 -27 56 -98 12 -142 -38
-38 -80 -39 -120 -1 -83 76 8 196 108 143z"/>
<path d="M3875 3966 c-74 -33 -104 -133 -57 -195 32 -44 67 -63 111 -63 110 2
177 118 119 206 -39 59 -109 80 -173 52z m114 -49 c8 -7 20 -26 27 -44 38 -90
-77 -164 -147 -94 -47 47 -35 116 26 149 23 13 72 7 94 -11z"/>
<path d="M3324 3867 c-17 -10 -18 -43 -2 -53 18 -11 419 -13 441 -2 19 10 23
43 5 54 -16 10 -426 11 -444 1z"/>
<path d="M1787 2266 c-3 -9 -2 -430 2 -448 2 -10 140 -4 144 7 2 5 3 38 2 73
-1 52 2 65 17 73 10 5 18 8 18 5 0 -2 20 2 45 10 l45 13 1 -27 c0 -15 2 -56 2
-92 l2 -65 72 -1 c59 -1 73 2 77 15 2 9 3 113 2 231 l-1 215 -75 0 -75 0 -1
-68 c0 -75 -7 -86 -55 -94 -77 -13 -74 -17 -73 75 0 51 -4 82 -10 83 -59 7
-136 4 -139 -5z"/>
<path d="M3528 2256 c-3 -18 -2 -318 1 -413 l1 -31 73 1 72 2 5 87 5 88 46
-87 c26 -48 51 -89 57 -91 5 -1 33 38 62 88 28 49 53 90 54 90 1 0 2 -35 1
-77 -1 -43 0 -83 2 -89 2 -6 32 -10 76 -10 l72 1 1 231 1 231 -58 -2 c-79 -1
-103 -21 -164 -137 -20 -38 -39 -68 -43 -68 -4 0 -23 30 -42 67 -19 37 -50 83
-70 103 -32 32 -41 35 -92 36 -50 1 -57 -2 -60 -20z"/>
<path d="M2321 2204 c-54 -23 -61 -45 -61 -189 0 -193 6 -199 223 -200 81 -1
147 1 148 4 9 49 6 93 -7 98 -9 3 -64 6 -122 7 l-107 1 -1 88 c0 48 2 88 5 88
3 1 27 2 54 3 57 2 64 -18 10 -31 l-38 -9 -3 -58 c-3 -56 -2 -57 20 -51 38 11
51 14 87 20 81 14 112 56 105 144 -6 79 -35 94 -177 96 -64 1 -119 -4 -136
-11z"/>
<path d="M2693 2211 c-14 -10 -9 -323 5 -348 22 -41 49 -47 210 -49 l152 -1 0
53 c0 36 -4 54 -12 55 -7 0 -61 1 -120 1 l-108 0 -1 32 c0 17 -1 83 -1 147
l-1 116 -58 0 c-32 0 -62 -3 -66 -6z"/>
<path d="M3108 2201 c-3 -14 -2 -342 1 -378 1 -8 21 -11 64 -10 l62 2 5 145 5
145 50 0 c45 -1 50 -3 53 -24 4 -28 -12 -41 -44 -35 -12 2 -26 -2 -31 -8 -12
-20 -11 -88 1 -89 17 -1 109 -1 134 0 13 0 34 12 47 26 22 21 25 33 25 92 0
86 -5 104 -37 127 -23 17 -45 20 -179 21 -131 1 -153 -1 -156 -14z"/>
<path d="M4162 2204 c-55 -23 -62 -45 -62 -189 0 -186 11 -198 185 -201 117
-2 147 5 183 38 21 20 22 29 22 160 0 137 0 138 -28 169 l-28 32 -121 2 c-79
1 -132 -3 -151 -11z m193 -189 l0 -90 -60 0 -60 0 -1 80 c0 44 1 85 3 90 2 6
29 10 61 10 l57 -1 0 -89z"/>
<path d="M4539 2191 c-1 -34 -1 -341 0 -362 1 -14 20 -16 159 -15 225 2 226 2
227 195 1 75 -2 143 -6 152 -5 9 -21 24 -36 35 -24 15 -51 18 -185 20 l-158 1
-1 -26z m252 -105 c4 -66 4 -143 1 -152 -2 -7 -27 -12 -63 -12 l-59 0 0 88 c0
47 2 89 4 91 2 2 29 4 60 5 50 0 56 -2 57 -20z"/>
<path d="M5020 2198 c-16 -9 -33 -25 -38 -35 -5 -10 -9 -79 -8 -154 1 -192 10
-199 231 -195 72 2 133 4 137 4 13 3 4 102 -9 103 -7 0 -60 1 -118 1 -58 0
-105 3 -106 7 -5 25 -4 171 0 172 40 6 85 4 98 -6 15 -11 12 -14 -27 -22 l-45
-9 -3 -58 c-3 -51 -1 -57 15 -53 10 3 43 11 73 17 105 24 129 50 126 139 -2
45 -7 58 -30 77 -30 27 -24 26 -164 28 -83 2 -109 -2 -132 -16z"/>
</g>
</svg>
